<svg width="800" height="400" viewBox="0 0 800 400" xmlns="http://www.w3.org/2000/svg">
  <rect width="800" height="400" rx="16" fill="#0F172A" stroke="#334155" stroke-width="2"/>
  <rect width="800" height="44" rx="16" fill="#1E293B"/>
  <rect y="28" width="800" height="16" fill="#1E293B"/>
  <circle cx="26" cy="22" r="6" fill="#EF4444"/>
  <circle cx="46" cy="22" r="6" fill="#F59E0B"/>
  <circle cx="66" cy="22" r="6" fill="#10B981"/>
  <text x="400" y="27" fill="#94A3B8" font-family="monospace" font-size="14" text-anchor="middle" font-weight="bold">Google Cloud Platform / IAM Service Account &amp; Storage Setup</text>
  
  <!-- Project info banner -->
  <rect x="30" y="65" width="740" height="50" rx="8" fill="#1E293B" stroke="#475569" stroke-width="1"/>
  <text x="50" y="95" fill="#38BDF8" font-family="sans-serif" font-size="14" font-weight="bold">PROJECT ID: <tspan fill="#F8FAFC">glamira-project-502214</tspan></text>
  <text x="450" y="95" fill="#38BDF8" font-family="sans-serif" font-size="14" font-weight="bold">REGION: <tspan fill="#F8FAFC">asia-southeast1 (Singapore)</tspan></text>

  <!-- Service Account Box -->
  <rect x="30" y="130" width="355" height="230" rx="10" fill="#1E293B" stroke="#334155"/>
  <text x="50" y="160" fill="#F8FAFC" font-family="sans-serif" font-size="15" font-weight="bold">IAM Service Account</text>
  <text x="50" y="185" fill="#94A3B8" font-family="monospace" font-size="12">glamira-pipeline-sa@glamira-project.iam</text>
  
  <rect x="50" y="205" width="315" height="30" rx="6" fill="#0F172A"/>
  <text x="60" y="225" fill="#10B981" font-family="sans-serif" font-size="12">Role: Storage Admin (GCS Read/Write)</text>
  <rect x="50" y="245" width="315" height="30" rx="6" fill="#0F172A"/>
  <text x="60" y="265" fill="#10B981" font-family="sans-serif" font-size="12">Role: BigQuery Admin (Datasets &amp; Jobs)</text>
  <rect x="50" y="285" width="315" height="30" rx="6" fill="#0F172A"/>
  <text x="60" y="305" fill="#10B981" font-family="sans-serif" font-size="12">Role: Cloud Functions Invoker / Eventarc</text>
  <text x="50" y="340" fill="#F59E0B" font-family="sans-serif" font-size="11">✔ Key downloaded as service-account-key.json</text>

  <!-- GCS Bucket Box -->
  <rect x="415" y="130" width="355" height="230" rx="10" fill="#1E293B" stroke="#334155"/>
  <text x="435" y="160" fill="#F8FAFC" font-family="sans-serif" font-size="15" font-weight="bold">GCS Storage Bucket</text>
  <text x="435" y="185" fill="#94A3B8" font-family="monospace" font-size="12">gs://raw_glamira/</text>
  
  <rect x="435" y="205" width="315" height="30" rx="6" fill="#0F172A"/>
  <text x="445" y="225" fill="#38BDF8" font-family="monospace" font-size="12">/summary/part_*.parquet</text>
  <rect x="435" y="245" width="315" height="30" rx="6" fill="#0F172A"/>
  <text x="445" y="265" fill="#38BDF8" font-family="monospace" font-size="12">/products.jsonl</text>
  <rect x="435" y="285" width="315" height="30" rx="6" fill="#0F172A"/>
  <text x="445" y="305" fill="#38BDF8" font-family="monospace" font-size="12">/locations.jsonl &amp; exchange_rate.jsonl</text>
  <text x="435" y="340" fill="#10B981" font-family="sans-serif" font-size="11">✔ Standard Storage Class | Enforced TLS 1.3</text>
</svg>