<svg width="800" height="380" viewBox="0 0 800 380" xmlns="http://www.w3.org/2000/svg">
  <rect width="800" height="380" rx="16" fill="#0F172A" stroke="#334155" stroke-width="2"/>
  <rect width="800" height="44" rx="16" fill="#1E293B"/>
  <rect y="28" width="800" height="16" fill="#1E293B"/>
  <circle cx="26" cy="22" r="6" fill="#EF4444"/>
  <circle cx="46" cy="22" r="6" fill="#F59E0B"/>
  <circle cx="66" cy="22" r="6" fill="#10B981"/>
  <text x="400" y="27" fill="#94A3B8" font-family="monospace" font-size="14" text-anchor="middle" font-weight="bold">GCS Storage Bucket / Partitioned Data Assets Ingested</text>

  <!-- Table Header -->
  <rect x="30" y="65" width="740" height="36" fill="#1E293B"/>
  <text x="50" y="88" fill="#94A3B8" font-family="sans-serif" font-size="13" font-weight="bold">OBJECT NAME</text>
  <text x="360" y="88" fill="#94A3B8" font-family="sans-serif" font-size="13" font-weight="bold">FORMAT</text>
  <text x="490" y="88" fill="#94A3B8" font-family="sans-serif" font-size="13" font-weight="bold">SIZE</text>
  <text x="630" y="88" fill="#94A3B8" font-family="sans-serif" font-size="13" font-weight="bold">STATUS</text>

  <!-- Rows -->
  <g font-family="monospace" font-size="13">
    <rect x="30" y="105" width="740" height="45" fill="#131D33"/>
    <text x="50" y="132" fill="#38BDF8">gs://raw_glamira/summary/part_0001.parquet</text>
    <text x="360" y="132" fill="#CBD5E1">Parquet (Snappy)</text>
    <text x="490" y="132" fill="#CBD5E1">42.8 MB</text>
    <text x="630" y="132" fill="#10B981">Uploaded ✔</text>

    <rect x="30" y="153" width="740" height="45" fill="#0F172A"/>
    <text x="50" y="180" fill="#38BDF8">gs://raw_glamira/summary/part_0002.parquet</text>
    <text x="360" y="180" fill="#CBD5E1">Parquet (Snappy)</text>
    <text x="490" y="180" fill="#CBD5E1">41.6 MB</text>
    <text x="630" y="180" fill="#10B981">Uploaded ✔</text>

    <rect x="30" y="201" width="740" height="45" fill="#131D33"/>
    <text x="50" y="228" fill="#38BDF8">gs://raw_glamira/products.jsonl</text>
    <text x="360" y="228" fill="#CBD5E1">JSON Lines</text>
    <text x="490" y="228" fill="#CBD5E1">18.4 MB</text>
    <text x="630" y="228" fill="#10B981">Uploaded ✔</text>

    <rect x="30" y="249" width="740" height="45" fill="#0F172A"/>
    <text x="50" y="276" fill="#38BDF8">gs://raw_glamira/locations.jsonl</text>
    <text x="360" y="276" fill="#CBD5E1">JSON Lines</text>
    <text x="490" y="276" fill="#CBD5E1">5.2 MB</text>
    <text x="630" y="276" fill="#10B981">Uploaded ✔</text>

    <rect x="30" y="297" width="740" height="45" fill="#131D33"/>
    <text x="50" y="324" fill="#38BDF8">gs://raw_glamira/exchange_rate.jsonl</text>
    <text x="360" y="324" fill="#CBD5E1">JSON Lines</text>
    <text x="490" y="324" fill="#CBD5E1">1.1 MB</text>
    <text x="630" y="324" fill="#10B981">Uploaded ✔</text>
  </g>
  <text x="50" y="365" fill="#94A3B8" font-family="sans-serif" font-size="12">Showing 5 objects in bucket gs://raw_glamira/ • Storage Class: Standard</text>
</svg>